<mxfile host="Electron" modified="2023-11-14T13:09:09.346Z" agent="Mozilla/5.0 (Macintosh; Intel Mac OS X 10_15_7) AppleWebKit/537.36 (KHTML, like Gecko) draw.io/21.6.8 Chrome/114.0.5735.289 Electron/25.5.0 Safari/537.36" etag="E94j_6xFxV20PgItHi7y" compressed="false" version="21.6.8" type="device">
  <diagram name="main" id="KS3WEbwcifBTzsb4HUmv">
    <mxGraphModel dx="963" dy="1032" grid="0" gridSize="10" guides="1" tooltips="1" connect="1" arrows="1" fold="1" page="0" pageScale="1" pageWidth="1100" pageHeight="850" math="0" shadow="0">
      <root>
        <mxCell id="xJ1eNEEvFR5x5LvTf2mW-0" />
        <mxCell id="xJ1eNEEvFR5x5LvTf2mW-1" parent="xJ1eNEEvFR5x5LvTf2mW-0" />
        <mxCell id="xJ1eNEEvFR5x5LvTf2mW-2" style="edgeStyle=orthogonalEdgeStyle;rounded=1;orthogonalLoop=1;jettySize=auto;html=1;exitX=1;exitY=0.5;exitDx=0;exitDy=0;exitPerimeter=0;entryX=0;entryY=0.5;entryDx=0;entryDy=0;entryPerimeter=0;" parent="xJ1eNEEvFR5x5LvTf2mW-1" source="xJ1eNEEvFR5x5LvTf2mW-3" target="xJ1eNEEvFR5x5LvTf2mW-6" edge="1">
          <mxGeometry relative="1" as="geometry" />
        </mxCell>
        <mxCell id="xJ1eNEEvFR5x5LvTf2mW-3" value="input" style="rhombus;whiteSpace=wrap;html=1;rounded=1;fontStyle=1;glass=0;sketch=0;fontSize=12;points=[[0,0.5,0,0,0],[0.5,0,0,0,0],[0.5,1,0,0,0],[1,0.5,0,0,0]];shadow=1;" parent="xJ1eNEEvFR5x5LvTf2mW-1" vertex="1">
          <mxGeometry x="8" y="-32.5" width="80" height="80" as="geometry" />
        </mxCell>
        <mxCell id="xJ1eNEEvFR5x5LvTf2mW-4" value="ps" style="rhombus;whiteSpace=wrap;html=1;rounded=1;fillColor=#0050ef;fontColor=#ffffff;strokeColor=#001DBC;fontStyle=1;glass=0;sketch=0;fontSize=12;points=[[0,0.5,0,0,0],[0.5,0,0,0,0],[0.5,1,0,0,0],[1,0.5,0,0,0]];shadow=1;" parent="xJ1eNEEvFR5x5LvTf2mW-1" vertex="1">
          <mxGeometry x="749" y="-32.5" width="80" height="80" as="geometry" />
        </mxCell>
        <mxCell id="xJ1eNEEvFR5x5LvTf2mW-5" value="$ ps" style="rounded=1;whiteSpace=wrap;html=1;sketch=0;container=1;recursiveResize=0;verticalAlign=top;arcSize=6;fontStyle=1;autosize=0;points=[];absoluteArcSize=1;shadow=1;strokeColor=#001DBC;fillColor=#0050ef;fontColor=#ffffff;connectable=0;" parent="xJ1eNEEvFR5x5LvTf2mW-1" vertex="1">
          <mxGeometry x="203" y="-41" width="134" height="87" as="geometry">
            <mxRectangle x="-98" y="-1230" width="99" height="26" as="alternateBounds" />
          </mxGeometry>
        </mxCell>
        <mxCell id="xJ1eNEEvFR5x5LvTf2mW-6" value="input" style="rounded=1;whiteSpace=wrap;html=1;sketch=0;points=[[0,0.5,0,0,0],[1,0.5,0,0,0]];arcSize=50;" parent="xJ1eNEEvFR5x5LvTf2mW-5" vertex="1">
          <mxGeometry x="-16.75" y="36" width="66" height="25" as="geometry" />
        </mxCell>
        <mxCell id="xJ1eNEEvFR5x5LvTf2mW-7" value="output" style="rounded=1;whiteSpace=wrap;html=1;sketch=0;points=[[0,0.5,0,0,0],[1,0.5,0,0,0]];fillColor=#1ba1e2;fontColor=#ffffff;strokeColor=#006EAF;arcSize=50;" parent="xJ1eNEEvFR5x5LvTf2mW-5" vertex="1">
          <mxGeometry x="84.75" y="36" width="66" height="25" as="geometry" />
        </mxCell>
        <mxCell id="xJ1eNEEvFR5x5LvTf2mW-8" value="$ grep vsh" style="rounded=1;whiteSpace=wrap;html=1;sketch=0;container=1;recursiveResize=0;verticalAlign=top;arcSize=6;fontStyle=1;autosize=0;points=[];absoluteArcSize=1;shadow=1;strokeColor=#001DBC;fillColor=#0050ef;fontColor=#ffffff;connectable=0;" parent="xJ1eNEEvFR5x5LvTf2mW-1" vertex="1">
          <mxGeometry x="503" y="-41" width="134" height="87" as="geometry">
            <mxRectangle x="-98" y="-1230" width="99" height="26" as="alternateBounds" />
          </mxGeometry>
        </mxCell>
        <mxCell id="xJ1eNEEvFR5x5LvTf2mW-9" value="input" style="rounded=1;whiteSpace=wrap;html=1;sketch=0;points=[[0,0.5,0,0,0],[1,0.5,0,0,0]];arcSize=50;" parent="xJ1eNEEvFR5x5LvTf2mW-8" vertex="1">
          <mxGeometry x="-16.75" y="36" width="66" height="25" as="geometry" />
        </mxCell>
        <mxCell id="xJ1eNEEvFR5x5LvTf2mW-10" value="output" style="rounded=1;whiteSpace=wrap;html=1;sketch=0;points=[[0,0.5,0,0,0],[1,0.5,0,0,0]];fillColor=#1ba1e2;fontColor=#ffffff;strokeColor=#006EAF;arcSize=50;" parent="xJ1eNEEvFR5x5LvTf2mW-8" vertex="1">
          <mxGeometry x="84.75" y="36" width="66" height="25" as="geometry" />
        </mxCell>
        <mxCell id="xJ1eNEEvFR5x5LvTf2mW-12" style="edgeStyle=orthogonalEdgeStyle;rounded=1;orthogonalLoop=1;jettySize=auto;html=1;exitX=1;exitY=0.5;exitDx=0;exitDy=0;exitPerimeter=0;entryX=0;entryY=0.5;entryDx=0;entryDy=0;entryPerimeter=0;" parent="xJ1eNEEvFR5x5LvTf2mW-1" source="xJ1eNEEvFR5x5LvTf2mW-10" target="xJ1eNEEvFR5x5LvTf2mW-4" edge="1">
          <mxGeometry relative="1" as="geometry" />
        </mxCell>
        <mxCell id="xJ1eNEEvFR5x5LvTf2mW-13" value="$ wc -l" style="rounded=1;whiteSpace=wrap;html=1;sketch=0;container=1;recursiveResize=0;verticalAlign=top;arcSize=6;fontStyle=1;autosize=0;points=[];absoluteArcSize=1;shadow=1;strokeColor=#001DBC;fillColor=#0050ef;fontColor=#ffffff;connectable=0;" parent="xJ1eNEEvFR5x5LvTf2mW-1" vertex="1">
          <mxGeometry x="503" y="142" width="134" height="87" as="geometry">
            <mxRectangle x="-98" y="-1230" width="99" height="26" as="alternateBounds" />
          </mxGeometry>
        </mxCell>
        <mxCell id="xJ1eNEEvFR5x5LvTf2mW-14" value="input" style="rounded=1;whiteSpace=wrap;html=1;sketch=0;points=[[0,0.5,0,0,0],[1,0.5,0,0,0]];arcSize=50;" parent="xJ1eNEEvFR5x5LvTf2mW-13" vertex="1">
          <mxGeometry x="-16.75" y="36" width="66" height="25" as="geometry" />
        </mxCell>
        <mxCell id="xJ1eNEEvFR5x5LvTf2mW-15" value="output" style="rounded=1;whiteSpace=wrap;html=1;sketch=0;points=[[0,0.5,0,0,0],[1,0.5,0,0,0]];fillColor=#1ba1e2;fontColor=#ffffff;strokeColor=#006EAF;arcSize=50;" parent="xJ1eNEEvFR5x5LvTf2mW-13" vertex="1">
          <mxGeometry x="84.75" y="36" width="66" height="25" as="geometry" />
        </mxCell>
        <mxCell id="xJ1eNEEvFR5x5LvTf2mW-17" value="processes" style="rhombus;whiteSpace=wrap;html=1;rounded=1;fillColor=#0050ef;fontColor=#ffffff;strokeColor=#001DBC;fontStyle=1;glass=0;sketch=0;fontSize=12;points=[[0,0.5,0,0,0],[0.5,0,0,0,0],[0.5,1,0,0,0],[1,0.5,0,0,0]];shadow=1;" parent="xJ1eNEEvFR5x5LvTf2mW-1" vertex="1">
          <mxGeometry x="749" y="150.5" width="80" height="80" as="geometry" />
        </mxCell>
        <mxCell id="xJ1eNEEvFR5x5LvTf2mW-18" style="edgeStyle=orthogonalEdgeStyle;rounded=1;orthogonalLoop=1;jettySize=auto;html=1;exitX=1;exitY=0.5;exitDx=0;exitDy=0;exitPerimeter=0;entryX=0;entryY=0.5;entryDx=0;entryDy=0;entryPerimeter=0;" parent="xJ1eNEEvFR5x5LvTf2mW-1" source="xJ1eNEEvFR5x5LvTf2mW-15" target="xJ1eNEEvFR5x5LvTf2mW-17" edge="1">
          <mxGeometry relative="1" as="geometry" />
        </mxCell>
        <mxCell id="7FJXLTVbLxZD-9ESnupR-1" style="edgeStyle=orthogonalEdgeStyle;rounded=0;orthogonalLoop=1;jettySize=auto;html=1;exitX=1;exitY=0.5;exitDx=0;exitDy=0;exitPerimeter=0;entryX=0;entryY=0.5;entryDx=0;entryDy=0;entryPerimeter=0;" edge="1" parent="xJ1eNEEvFR5x5LvTf2mW-1" source="xJ1eNEEvFR5x5LvTf2mW-7" target="xJ1eNEEvFR5x5LvTf2mW-9">
          <mxGeometry relative="1" as="geometry" />
        </mxCell>
        <mxCell id="7FJXLTVbLxZD-9ESnupR-2" style="edgeStyle=orthogonalEdgeStyle;rounded=1;orthogonalLoop=1;jettySize=auto;html=1;exitX=1;exitY=0.5;exitDx=0;exitDy=0;exitPerimeter=0;entryX=0;entryY=0.5;entryDx=0;entryDy=0;entryPerimeter=0;" edge="1" parent="xJ1eNEEvFR5x5LvTf2mW-1" source="xJ1eNEEvFR5x5LvTf2mW-7" target="xJ1eNEEvFR5x5LvTf2mW-14">
          <mxGeometry relative="1" as="geometry" />
        </mxCell>
      </root>
    </mxGraphModel>
  </diagram>
</mxfile>
